<mxfile host="app.diagrams.net" agent="Mozilla/5.0 (Macintosh; Intel Mac OS X 10_15_7) AppleWebKit/537.36 (KHTML, like Gecko) Chrome/129.0.0.0 Safari/537.36" version="24.7.16">
  <diagram name="페이지-1" id="lc1ub9BGfHVmBmHbZRl3">
    <mxGraphModel dx="988" dy="523" grid="1" gridSize="10" guides="1" tooltips="1" connect="1" arrows="1" fold="1" page="1" pageScale="1" pageWidth="827" pageHeight="1169" math="0" shadow="0">
      <root>
        <mxCell id="0" />
        <mxCell id="1" parent="0" />
        <mxCell id="Ngin4L8gO7_3mvWCoB4Z-1" value="Customer" style="rounded=0;whiteSpace=wrap;html=1;" vertex="1" parent="1">
          <mxGeometry x="183" y="150" width="80" height="20" as="geometry" />
        </mxCell>
        <mxCell id="Ngin4L8gO7_3mvWCoB4Z-2" value="Order" style="rounded=0;whiteSpace=wrap;html=1;" vertex="1" parent="1">
          <mxGeometry x="435" y="150" width="80" height="20" as="geometry" />
        </mxCell>
        <mxCell id="Ngin4L8gO7_3mvWCoB4Z-3" value="Item" style="rounded=0;whiteSpace=wrap;html=1;" vertex="1" parent="1">
          <mxGeometry x="670" y="330" width="80" height="20" as="geometry" />
        </mxCell>
        <mxCell id="Ngin4L8gO7_3mvWCoB4Z-4" value="Lineitem" style="rounded=0;whiteSpace=wrap;html=1;" vertex="1" parent="1">
          <mxGeometry x="670" y="150" width="80" height="20" as="geometry" />
        </mxCell>
        <mxCell id="Ngin4L8gO7_3mvWCoB4Z-5" value="Salesperson" style="rounded=0;whiteSpace=wrap;html=1;" vertex="1" parent="1">
          <mxGeometry x="435" y="330" width="80" height="20" as="geometry" />
        </mxCell>
        <mxCell id="Ngin4L8gO7_3mvWCoB4Z-6" style="edgeStyle=orthogonalEdgeStyle;rounded=0;orthogonalLoop=1;jettySize=auto;html=1;exitX=0.5;exitY=1;exitDx=0;exitDy=0;" edge="1" parent="1" source="Ngin4L8gO7_3mvWCoB4Z-4" target="Ngin4L8gO7_3mvWCoB4Z-4">
          <mxGeometry relative="1" as="geometry" />
        </mxCell>
        <mxCell id="Ngin4L8gO7_3mvWCoB4Z-7" value="&lt;u&gt;Customer_id&lt;/u&gt;" style="ellipse;whiteSpace=wrap;html=1;" vertex="1" parent="1">
          <mxGeometry x="33" y="90" width="80" height="30" as="geometry" />
        </mxCell>
        <mxCell id="Ngin4L8gO7_3mvWCoB4Z-8" value="Customer_Name" style="ellipse;whiteSpace=wrap;html=1;" vertex="1" parent="1">
          <mxGeometry x="123" y="90" width="100" height="30" as="geometry" />
        </mxCell>
        <mxCell id="Ngin4L8gO7_3mvWCoB4Z-9" value="State" style="ellipse;whiteSpace=wrap;html=1;" vertex="1" parent="1">
          <mxGeometry x="243" y="50" width="40" height="30" as="geometry" />
        </mxCell>
        <mxCell id="Ngin4L8gO7_3mvWCoB4Z-10" value="City" style="ellipse;whiteSpace=wrap;html=1;" vertex="1" parent="1">
          <mxGeometry x="203" y="50" width="30" height="30" as="geometry" />
        </mxCell>
        <mxCell id="Ngin4L8gO7_3mvWCoB4Z-11" value="Zip" style="ellipse;whiteSpace=wrap;html=1;strokeColor=default;align=center;verticalAlign=middle;fontFamily=Helvetica;fontSize=12;fontColor=default;fillColor=default;" vertex="1" parent="1">
          <mxGeometry x="293" y="50" width="30" height="30" as="geometry" />
        </mxCell>
        <mxCell id="Ngin4L8gO7_3mvWCoB4Z-12" value="Address" style="ellipse;whiteSpace=wrap;html=1;strokeColor=default;align=center;verticalAlign=middle;fontFamily=Helvetica;fontSize=12;fontColor=default;fillColor=default;" vertex="1" parent="1">
          <mxGeometry x="233" y="90" width="60" height="30" as="geometry" />
        </mxCell>
        <mxCell id="Ngin4L8gO7_3mvWCoB4Z-13" value="" style="endArrow=none;html=1;rounded=0;" edge="1" parent="1" source="Ngin4L8gO7_3mvWCoB4Z-1" target="Ngin4L8gO7_3mvWCoB4Z-7">
          <mxGeometry width="50" height="50" relative="1" as="geometry">
            <mxPoint x="340" y="270" as="sourcePoint" />
            <mxPoint x="390" y="220" as="targetPoint" />
          </mxGeometry>
        </mxCell>
        <mxCell id="Ngin4L8gO7_3mvWCoB4Z-15" value="" style="endArrow=none;html=1;rounded=0;" edge="1" parent="1" source="Ngin4L8gO7_3mvWCoB4Z-1" target="Ngin4L8gO7_3mvWCoB4Z-8">
          <mxGeometry width="50" height="50" relative="1" as="geometry">
            <mxPoint x="340" y="270" as="sourcePoint" />
            <mxPoint x="390" y="220" as="targetPoint" />
          </mxGeometry>
        </mxCell>
        <mxCell id="Ngin4L8gO7_3mvWCoB4Z-16" value="" style="endArrow=none;html=1;rounded=0;" edge="1" parent="1" source="Ngin4L8gO7_3mvWCoB4Z-1" target="Ngin4L8gO7_3mvWCoB4Z-12">
          <mxGeometry width="50" height="50" relative="1" as="geometry">
            <mxPoint x="160" y="160" as="sourcePoint" />
            <mxPoint x="160" y="130" as="targetPoint" />
          </mxGeometry>
        </mxCell>
        <mxCell id="Ngin4L8gO7_3mvWCoB4Z-17" value="" style="endArrow=none;html=1;rounded=0;" edge="1" parent="1" source="Ngin4L8gO7_3mvWCoB4Z-12" target="Ngin4L8gO7_3mvWCoB4Z-10">
          <mxGeometry width="50" height="50" relative="1" as="geometry">
            <mxPoint x="170" y="170" as="sourcePoint" />
            <mxPoint x="170" y="140" as="targetPoint" />
          </mxGeometry>
        </mxCell>
        <mxCell id="Ngin4L8gO7_3mvWCoB4Z-18" value="" style="endArrow=none;html=1;rounded=0;" edge="1" parent="1" source="Ngin4L8gO7_3mvWCoB4Z-12" target="Ngin4L8gO7_3mvWCoB4Z-9">
          <mxGeometry width="50" height="50" relative="1" as="geometry">
            <mxPoint x="180" y="180" as="sourcePoint" />
            <mxPoint x="180" y="150" as="targetPoint" />
          </mxGeometry>
        </mxCell>
        <mxCell id="Ngin4L8gO7_3mvWCoB4Z-19" value="" style="endArrow=none;html=1;rounded=0;" edge="1" parent="1" source="Ngin4L8gO7_3mvWCoB4Z-12" target="Ngin4L8gO7_3mvWCoB4Z-11">
          <mxGeometry width="50" height="50" relative="1" as="geometry">
            <mxPoint x="190" y="190" as="sourcePoint" />
            <mxPoint x="190" y="160" as="targetPoint" />
          </mxGeometry>
        </mxCell>
        <mxCell id="Ngin4L8gO7_3mvWCoB4Z-20" value="Phone" style="ellipse;whiteSpace=wrap;html=1;strokeColor=default;align=center;verticalAlign=middle;fontFamily=Helvetica;fontSize=12;fontColor=default;fillColor=default;" vertex="1" parent="1">
          <mxGeometry x="303" y="90" width="50" height="30" as="geometry" />
        </mxCell>
        <mxCell id="Ngin4L8gO7_3mvWCoB4Z-21" value="" style="endArrow=none;html=1;rounded=0;" edge="1" parent="1" source="Ngin4L8gO7_3mvWCoB4Z-1" target="Ngin4L8gO7_3mvWCoB4Z-20">
          <mxGeometry width="50" height="50" relative="1" as="geometry">
            <mxPoint x="231" y="151" as="sourcePoint" />
            <mxPoint x="240" y="129" as="targetPoint" />
          </mxGeometry>
        </mxCell>
        <mxCell id="Ngin4L8gO7_3mvWCoB4Z-22" value="&lt;u&gt;Order_num&lt;/u&gt;" style="ellipse;whiteSpace=wrap;html=1;" vertex="1" parent="1">
          <mxGeometry x="405" y="90" width="80" height="30" as="geometry" />
        </mxCell>
        <mxCell id="Ngin4L8gO7_3mvWCoB4Z-23" value="Date" style="ellipse;whiteSpace=wrap;html=1;strokeColor=default;align=center;verticalAlign=middle;fontFamily=Helvetica;fontSize=12;fontColor=default;fillColor=default;" vertex="1" parent="1">
          <mxGeometry x="495" y="90" width="40" height="30" as="geometry" />
        </mxCell>
        <mxCell id="Ngin4L8gO7_3mvWCoB4Z-24" value="" style="endArrow=none;html=1;rounded=0;" edge="1" parent="1" source="Ngin4L8gO7_3mvWCoB4Z-2" target="Ngin4L8gO7_3mvWCoB4Z-22">
          <mxGeometry width="50" height="50" relative="1" as="geometry">
            <mxPoint x="217" y="160" as="sourcePoint" />
            <mxPoint x="240" y="129" as="targetPoint" />
          </mxGeometry>
        </mxCell>
        <mxCell id="Ngin4L8gO7_3mvWCoB4Z-25" value="" style="endArrow=none;html=1;rounded=0;" edge="1" parent="1" source="Ngin4L8gO7_3mvWCoB4Z-2" target="Ngin4L8gO7_3mvWCoB4Z-23">
          <mxGeometry width="50" height="50" relative="1" as="geometry">
            <mxPoint x="475" y="160" as="sourcePoint" />
            <mxPoint x="458" y="130" as="targetPoint" />
          </mxGeometry>
        </mxCell>
        <mxCell id="Ngin4L8gO7_3mvWCoB4Z-26" value="&lt;u&gt;Lineitem_num&lt;/u&gt;" style="ellipse;whiteSpace=wrap;html=1;" vertex="1" parent="1">
          <mxGeometry x="610" y="90" width="90" height="30" as="geometry" />
        </mxCell>
        <mxCell id="Ngin4L8gO7_3mvWCoB4Z-27" value="Quantity" style="ellipse;whiteSpace=wrap;html=1;strokeColor=default;align=center;verticalAlign=middle;fontFamily=Helvetica;fontSize=12;fontColor=default;fillColor=default;" vertex="1" parent="1">
          <mxGeometry x="730" y="90" width="60" height="30" as="geometry" />
        </mxCell>
        <mxCell id="Ngin4L8gO7_3mvWCoB4Z-28" value="" style="endArrow=none;html=1;rounded=0;" edge="1" parent="1" source="Ngin4L8gO7_3mvWCoB4Z-26" target="Ngin4L8gO7_3mvWCoB4Z-4">
          <mxGeometry width="50" height="50" relative="1" as="geometry">
            <mxPoint x="475" y="160" as="sourcePoint" />
            <mxPoint x="458" y="130" as="targetPoint" />
          </mxGeometry>
        </mxCell>
        <mxCell id="Ngin4L8gO7_3mvWCoB4Z-29" value="" style="endArrow=none;html=1;rounded=0;" edge="1" parent="1" source="Ngin4L8gO7_3mvWCoB4Z-27" target="Ngin4L8gO7_3mvWCoB4Z-4">
          <mxGeometry width="50" height="50" relative="1" as="geometry">
            <mxPoint x="165" y="291" as="sourcePoint" />
            <mxPoint x="209" y="250" as="targetPoint" />
          </mxGeometry>
        </mxCell>
        <mxCell id="Ngin4L8gO7_3mvWCoB4Z-30" value="&lt;u&gt;Salesperson_code&lt;/u&gt;" style="ellipse;whiteSpace=wrap;html=1;" vertex="1" parent="1">
          <mxGeometry x="381" y="370" width="110" height="30" as="geometry" />
        </mxCell>
        <mxCell id="Ngin4L8gO7_3mvWCoB4Z-31" value="Name" style="ellipse;whiteSpace=wrap;html=1;strokeColor=default;align=center;verticalAlign=middle;fontFamily=Helvetica;fontSize=12;fontColor=default;fillColor=default;" vertex="1" parent="1">
          <mxGeometry x="501" y="370" width="50" height="30" as="geometry" />
        </mxCell>
        <mxCell id="Ngin4L8gO7_3mvWCoB4Z-32" value="" style="endArrow=none;html=1;rounded=0;" edge="1" parent="1" source="Ngin4L8gO7_3mvWCoB4Z-30" target="Ngin4L8gO7_3mvWCoB4Z-5">
          <mxGeometry width="50" height="50" relative="1" as="geometry">
            <mxPoint x="220" y="270" as="sourcePoint" />
            <mxPoint x="220" y="250" as="targetPoint" />
          </mxGeometry>
        </mxCell>
        <mxCell id="Ngin4L8gO7_3mvWCoB4Z-33" value="" style="endArrow=none;html=1;rounded=0;" edge="1" parent="1" source="Ngin4L8gO7_3mvWCoB4Z-31" target="Ngin4L8gO7_3mvWCoB4Z-5">
          <mxGeometry width="50" height="50" relative="1" as="geometry">
            <mxPoint x="336" y="270" as="sourcePoint" />
            <mxPoint x="352" y="250" as="targetPoint" />
          </mxGeometry>
        </mxCell>
        <mxCell id="Ngin4L8gO7_3mvWCoB4Z-35" value="&lt;u&gt;Item_Num&lt;/u&gt;" style="ellipse;whiteSpace=wrap;html=1;" vertex="1" parent="1">
          <mxGeometry x="645" y="370" width="76" height="30" as="geometry" />
        </mxCell>
        <mxCell id="Ngin4L8gO7_3mvWCoB4Z-36" value="Price" style="ellipse;whiteSpace=wrap;html=1;strokeColor=default;align=center;verticalAlign=middle;fontFamily=Helvetica;fontSize=12;fontColor=default;fillColor=default;" vertex="1" parent="1">
          <mxGeometry x="735" y="370" width="40" height="30" as="geometry" />
        </mxCell>
        <mxCell id="Ngin4L8gO7_3mvWCoB4Z-37" value="" style="endArrow=none;html=1;rounded=0;" edge="1" parent="1" source="Ngin4L8gO7_3mvWCoB4Z-35" target="Ngin4L8gO7_3mvWCoB4Z-3">
          <mxGeometry width="50" height="50" relative="1" as="geometry">
            <mxPoint x="400" y="273" as="sourcePoint" />
            <mxPoint x="372" y="250" as="targetPoint" />
          </mxGeometry>
        </mxCell>
        <mxCell id="Ngin4L8gO7_3mvWCoB4Z-38" value="" style="endArrow=none;html=1;rounded=0;" edge="1" parent="1" source="Ngin4L8gO7_3mvWCoB4Z-36" target="Ngin4L8gO7_3mvWCoB4Z-3">
          <mxGeometry width="50" height="50" relative="1" as="geometry">
            <mxPoint x="410" y="283" as="sourcePoint" />
            <mxPoint x="382" y="260" as="targetPoint" />
          </mxGeometry>
        </mxCell>
        <mxCell id="Ngin4L8gO7_3mvWCoB4Z-39" value="Made" style="shape=rhombus;perimeter=rhombusPerimeter;whiteSpace=wrap;html=1;align=center;" vertex="1" parent="1">
          <mxGeometry x="295" y="130" width="110" height="60" as="geometry" />
        </mxCell>
        <mxCell id="Ngin4L8gO7_3mvWCoB4Z-41" value="" style="endArrow=none;html=1;rounded=0;entryX=0;entryY=0.5;entryDx=0;entryDy=0;exitX=1;exitY=0.5;exitDx=0;exitDy=0;" edge="1" parent="1" source="Ngin4L8gO7_3mvWCoB4Z-1" target="Ngin4L8gO7_3mvWCoB4Z-39">
          <mxGeometry width="50" height="50" relative="1" as="geometry">
            <mxPoint x="330" y="310" as="sourcePoint" />
            <mxPoint x="380" y="260" as="targetPoint" />
          </mxGeometry>
        </mxCell>
        <mxCell id="Ngin4L8gO7_3mvWCoB4Z-42" value="" style="endArrow=none;html=1;rounded=0;entryX=1;entryY=0.5;entryDx=0;entryDy=0;exitX=0;exitY=0.5;exitDx=0;exitDy=0;" edge="1" parent="1" source="Ngin4L8gO7_3mvWCoB4Z-2" target="Ngin4L8gO7_3mvWCoB4Z-39">
          <mxGeometry width="50" height="50" relative="1" as="geometry">
            <mxPoint x="420" y="293" as="sourcePoint" />
            <mxPoint x="392" y="270" as="targetPoint" />
          </mxGeometry>
        </mxCell>
        <mxCell id="Ngin4L8gO7_3mvWCoB4Z-43" value="Manages" style="shape=rhombus;perimeter=rhombusPerimeter;whiteSpace=wrap;html=1;align=center;" vertex="1" parent="1">
          <mxGeometry x="420" y="220" width="110" height="60" as="geometry" />
        </mxCell>
        <mxCell id="Ngin4L8gO7_3mvWCoB4Z-44" value="" style="endArrow=none;html=1;rounded=0;exitX=0.5;exitY=0;exitDx=0;exitDy=0;entryX=0.5;entryY=1;entryDx=0;entryDy=0;" edge="1" parent="1" source="Ngin4L8gO7_3mvWCoB4Z-43" target="Ngin4L8gO7_3mvWCoB4Z-2">
          <mxGeometry width="50" height="50" relative="1" as="geometry">
            <mxPoint x="470" y="170" as="sourcePoint" />
            <mxPoint x="500" y="190" as="targetPoint" />
          </mxGeometry>
        </mxCell>
        <mxCell id="Ngin4L8gO7_3mvWCoB4Z-45" value="" style="endArrow=none;html=1;rounded=0;exitX=0.5;exitY=0;exitDx=0;exitDy=0;entryX=0.5;entryY=1;entryDx=0;entryDy=0;" edge="1" parent="1" source="Ngin4L8gO7_3mvWCoB4Z-5" target="Ngin4L8gO7_3mvWCoB4Z-43">
          <mxGeometry width="50" height="50" relative="1" as="geometry">
            <mxPoint x="470" y="220" as="sourcePoint" />
            <mxPoint x="510" y="180" as="targetPoint" />
          </mxGeometry>
        </mxCell>
        <mxCell id="Ngin4L8gO7_3mvWCoB4Z-46" value="Participated" style="shape=rhombus;perimeter=rhombusPerimeter;whiteSpace=wrap;html=1;align=center;" vertex="1" parent="1">
          <mxGeometry x="655" y="220" width="110" height="60" as="geometry" />
        </mxCell>
        <mxCell id="Ngin4L8gO7_3mvWCoB4Z-47" value="Contained" style="shape=rhombus;perimeter=rhombusPerimeter;whiteSpace=wrap;html=1;align=center;" vertex="1" parent="1">
          <mxGeometry x="537" y="130" width="110" height="60" as="geometry" />
        </mxCell>
        <mxCell id="Ngin4L8gO7_3mvWCoB4Z-48" value="" style="endArrow=none;html=1;rounded=0;entryX=0.5;entryY=1;entryDx=0;entryDy=0;exitX=0.5;exitY=0;exitDx=0;exitDy=0;exitPerimeter=0;" edge="1" parent="1" source="Ngin4L8gO7_3mvWCoB4Z-3" target="Ngin4L8gO7_3mvWCoB4Z-46">
          <mxGeometry width="50" height="50" relative="1" as="geometry">
            <mxPoint x="703" y="381" as="sourcePoint" />
            <mxPoint x="718" y="360" as="targetPoint" />
          </mxGeometry>
        </mxCell>
        <mxCell id="Ngin4L8gO7_3mvWCoB4Z-49" value="" style="endArrow=none;html=1;rounded=0;exitX=0.5;exitY=0;exitDx=0;exitDy=0;" edge="1" parent="1" source="Ngin4L8gO7_3mvWCoB4Z-46" target="Ngin4L8gO7_3mvWCoB4Z-4">
          <mxGeometry width="50" height="50" relative="1" as="geometry">
            <mxPoint x="725" y="340" as="sourcePoint" />
            <mxPoint x="700" y="210" as="targetPoint" />
          </mxGeometry>
        </mxCell>
        <mxCell id="Ngin4L8gO7_3mvWCoB4Z-52" value="" style="endArrow=none;html=1;rounded=0;entryX=1;entryY=0.5;entryDx=0;entryDy=0;exitX=0;exitY=0.5;exitDx=0;exitDy=0;" edge="1" parent="1" source="Ngin4L8gO7_3mvWCoB4Z-47" target="Ngin4L8gO7_3mvWCoB4Z-2">
          <mxGeometry width="50" height="50" relative="1" as="geometry">
            <mxPoint x="420" y="270" as="sourcePoint" />
            <mxPoint x="470" y="220" as="targetPoint" />
          </mxGeometry>
        </mxCell>
        <mxCell id="Ngin4L8gO7_3mvWCoB4Z-53" value="" style="endArrow=none;html=1;rounded=0;entryX=1;entryY=0.5;entryDx=0;entryDy=0;exitX=0;exitY=0.5;exitDx=0;exitDy=0;" edge="1" parent="1" source="Ngin4L8gO7_3mvWCoB4Z-4" target="Ngin4L8gO7_3mvWCoB4Z-47">
          <mxGeometry width="50" height="50" relative="1" as="geometry">
            <mxPoint x="554" y="170" as="sourcePoint" />
            <mxPoint x="534" y="170" as="targetPoint" />
          </mxGeometry>
        </mxCell>
        <mxCell id="Ngin4L8gO7_3mvWCoB4Z-54" value="&lt;font style=&quot;font-size: 8px;&quot;&gt;(1,1)&lt;/font&gt;" style="text;html=1;align=center;verticalAlign=middle;resizable=0;points=[];autosize=1;strokeColor=none;fillColor=none;" vertex="1" parent="1">
          <mxGeometry x="263" y="136" width="40" height="30" as="geometry" />
        </mxCell>
        <mxCell id="Ngin4L8gO7_3mvWCoB4Z-55" value="&lt;font style=&quot;font-size: 8px;&quot;&gt;(1,n)&lt;/font&gt;" style="text;html=1;align=center;verticalAlign=middle;resizable=0;points=[];autosize=1;strokeColor=none;fillColor=none;" vertex="1" parent="1">
          <mxGeometry x="398" y="136" width="40" height="30" as="geometry" />
        </mxCell>
        <mxCell id="Ngin4L8gO7_3mvWCoB4Z-56" value="&lt;font style=&quot;font-size: 8px;&quot;&gt;(1,n)&lt;/font&gt;" style="text;html=1;align=center;verticalAlign=middle;resizable=0;points=[];autosize=1;strokeColor=none;fillColor=none;" vertex="1" parent="1">
          <mxGeometry x="465" y="180" width="40" height="30" as="geometry" />
        </mxCell>
        <mxCell id="Ngin4L8gO7_3mvWCoB4Z-57" value="&lt;font style=&quot;font-size: 8px;&quot;&gt;(0,1)&lt;/font&gt;" style="text;html=1;align=center;verticalAlign=middle;resizable=0;points=[];autosize=1;strokeColor=none;fillColor=none;" vertex="1" parent="1">
          <mxGeometry x="465" y="290" width="40" height="30" as="geometry" />
        </mxCell>
        <mxCell id="Ngin4L8gO7_3mvWCoB4Z-58" value="&lt;font style=&quot;font-size: 8px;&quot;&gt;(1,1)&lt;/font&gt;" style="text;html=1;align=center;verticalAlign=middle;resizable=0;points=[];autosize=1;strokeColor=none;fillColor=none;" vertex="1" parent="1">
          <mxGeometry x="508" y="136" width="40" height="30" as="geometry" />
        </mxCell>
        <mxCell id="Ngin4L8gO7_3mvWCoB4Z-59" value="&lt;font style=&quot;font-size: 8px;&quot;&gt;(1,n)&lt;/font&gt;" style="text;html=1;align=center;verticalAlign=middle;resizable=0;points=[];autosize=1;strokeColor=none;fillColor=none;" vertex="1" parent="1">
          <mxGeometry x="638" y="136" width="40" height="30" as="geometry" />
        </mxCell>
        <mxCell id="Ngin4L8gO7_3mvWCoB4Z-60" value="&lt;font style=&quot;font-size: 8px;&quot;&gt;(1,n)&lt;/font&gt;" style="text;html=1;align=center;verticalAlign=middle;resizable=0;points=[];autosize=1;strokeColor=none;fillColor=none;" vertex="1" parent="1">
          <mxGeometry x="700" y="180" width="40" height="30" as="geometry" />
        </mxCell>
        <mxCell id="Ngin4L8gO7_3mvWCoB4Z-61" value="&lt;font style=&quot;font-size: 8px;&quot;&gt;(0,1)&lt;/font&gt;" style="text;html=1;align=center;verticalAlign=middle;resizable=0;points=[];autosize=1;strokeColor=none;fillColor=none;" vertex="1" parent="1">
          <mxGeometry x="700" y="290" width="40" height="30" as="geometry" />
        </mxCell>
        <mxCell id="Ngin4L8gO7_3mvWCoB4Z-62" value="Subtotal" style="ellipse;whiteSpace=wrap;html=1;align=center;dashed=1;" vertex="1" parent="1">
          <mxGeometry x="331" y="200" width="67" height="20" as="geometry" />
        </mxCell>
        <mxCell id="Ngin4L8gO7_3mvWCoB4Z-63" value="Tax" style="ellipse;whiteSpace=wrap;html=1;align=center;dashed=1;" vertex="1" parent="1">
          <mxGeometry x="390" y="220" width="37" height="20" as="geometry" />
        </mxCell>
        <mxCell id="Ngin4L8gO7_3mvWCoB4Z-64" value="Total" style="ellipse;whiteSpace=wrap;html=1;align=center;dashed=1;" vertex="1" parent="1">
          <mxGeometry x="402.5" y="180" width="35.5" height="20" as="geometry" />
        </mxCell>
        <mxCell id="Ngin4L8gO7_3mvWCoB4Z-65" value="" style="endArrow=none;html=1;rounded=0;" edge="1" parent="1" source="Ngin4L8gO7_3mvWCoB4Z-64" target="Ngin4L8gO7_3mvWCoB4Z-2">
          <mxGeometry width="50" height="50" relative="1" as="geometry">
            <mxPoint x="459" y="380" as="sourcePoint" />
            <mxPoint x="476" y="360" as="targetPoint" />
          </mxGeometry>
        </mxCell>
        <mxCell id="Ngin4L8gO7_3mvWCoB4Z-66" value="" style="endArrow=none;html=1;rounded=0;" edge="1" parent="1" source="Ngin4L8gO7_3mvWCoB4Z-63" target="Ngin4L8gO7_3mvWCoB4Z-64">
          <mxGeometry width="50" height="50" relative="1" as="geometry">
            <mxPoint x="430" y="210" as="sourcePoint" />
            <mxPoint x="486" y="370" as="targetPoint" />
          </mxGeometry>
        </mxCell>
        <mxCell id="Ngin4L8gO7_3mvWCoB4Z-67" value="" style="endArrow=none;html=1;rounded=0;" edge="1" parent="1" source="Ngin4L8gO7_3mvWCoB4Z-62" target="Ngin4L8gO7_3mvWCoB4Z-64">
          <mxGeometry width="50" height="50" relative="1" as="geometry">
            <mxPoint x="479" y="400" as="sourcePoint" />
            <mxPoint x="496" y="380" as="targetPoint" />
          </mxGeometry>
        </mxCell>
      </root>
    </mxGraphModel>
  </diagram>
</mxfile>
